<?xml version="1.0" standalone="no"?>
<!DOCTYPE svg PUBLIC "-//W3C//DTD SVG 20010904//EN"
 "http://www.w3.org/TR/2001/REC-SVG-20010904/DTD/svg10.dtd">
<svg version="1.0" xmlns="http://www.w3.org/2000/svg"
 width="256.000000pt" height="256.000000pt" viewBox="0 0 256.000000 256.000000"
 preserveAspectRatio="xMidYMid meet">

<g transform="translate(0.000000,256.000000) scale(0.100000,-0.100000)"
fill="#000000" stroke="none">
<path d="M724 2468 c-12 -5 -27 -21 -33 -34 -8 -18 -11 -334 -11 -1109 l0
-1085 600 0 600 0 0 1095 0 1096 -25 24 -24 25 -543 -1 c-352 0 -551 -4 -564
-11z m1006 -628 l0 -490 -450 0 -450 0 0 490 0 490 450 0 450 0 0 -490z m54
-616 c20 -19 20 -29 0 -48 -9 -10 -33 -16 -60 -16 l-44 0 0 -142 0 -142 -40
39 -40 39 -40 -39 -40 -39 -40 39 -40 39 -40 -39 -40 -39 0 142 0 142 -44 0
c-42 0 -76 18 -76 40 0 5 7 16 16 24 23 24 505 24 528 0z m-624 -224 l0 -200
-160 0 -160 0 0 200 0 200 160 0 160 0 0 -200z m-80 -440 l0 -80 -80 0 -80 0
0 80 0 80 80 0 80 0 0 -80z"/>
<path d="M920 2200 c-18 -18 -20 -33 -20 -152 1 -95 4 -138 14 -150 12 -16 32
-18 163 -18 102 0 153 4 161 12 8 8 12 57 12 154 0 182 8 174 -177 174 -120 0
-135 -2 -153 -20z"/>
<path d="M910 1781 c-15 -30 -12 -272 4 -293 12 -16 32 -18 163 -18 102 0 153
4 161 12 17 17 17 289 0 306 -8 8 -59 12 -165 12 -140 0 -153 -2 -163 -19z"/>
<path d="M1324 1787 c-2 -7 -3 -80 -2 -162 l3 -150 154 -3 c104 -2 158 1 167
9 19 15 20 289 2 307 -18 18 -317 17 -324 -1z"/>
</g>
</svg>
